<svg width="24" height="18" viewBox="0 0 24 18" fill="none" xmlns="http://www.w3.org/2000/svg">
    <g clip-path="url(#clip0_3426_50244)">
        <path fill-rule="evenodd" clip-rule="evenodd" d="M7.5579 10.9852C7.68605 11.4822 7.86985 11.9568 8.10225 12.4019C8.07499 12.41 8.04735 12.4182 8.01933 12.4265C6.02116 13.0185 4.7155 12.97 4.02763 12.2781C3.30534 11.5513 3.45943 11.0216 3.4795 10.9633L3.53598 10.8008L3.69861 10.8085C4.84882 10.8629 6.38581 10.9338 7.5579 10.9852Z" fill="url(#paint0_radial_3426_50244)"/>
        <path fill-rule="evenodd" clip-rule="evenodd" d="M7.59977 11.1396C7.70786 11.5206 7.84886 11.8877 8.01948 12.2377C7.99294 12.2458 7.96605 12.254 7.9388 12.2622C6.13352 12.8105 4.81899 12.8615 4.13194 12.1736C3.44471 11.4857 3.61947 10.9976 3.61947 10.9976C3.61947 10.9976 5.96143 11.0849 7.59977 11.1396Z" fill="#FF95EC"/>
        <path fill-rule="evenodd" clip-rule="evenodd" d="M7.36079 8.85617C7.35079 9.00581 7.34571 9.15681 7.34571 9.30899C7.34571 9.89504 7.42104 10.4635 7.56253 11.0052C5.22422 11.288 3.743 10.9725 3.04472 10.0463C2.2413 8.98033 2.54964 8.31724 2.58765 8.24483L2.69433 8.04297L2.9064 8.08026C4.22324 8.31135 5.9291 8.60895 7.36079 8.85617Z" fill="url(#paint1_radial_3426_50244)"/>
        <path fill-rule="evenodd" clip-rule="evenodd" d="M7.35153 9.04237C7.34807 9.13078 7.34632 9.21963 7.34632 9.30889C7.34632 9.82175 7.40401 10.3211 7.51325 10.8009C5.38969 11.0535 3.89113 10.8193 3.18459 9.88098C2.40191 8.84195 2.72545 8.22705 2.72545 8.22705C2.72545 8.22705 5.26498 8.6782 7.35153 9.04237Z" fill="#85FFF9"/>
        <path fill-rule="evenodd" clip-rule="evenodd" d="M7.92002 6.5937C7.57577 7.36833 7.37429 8.22047 7.34901 9.11669C5.26372 9.23387 3.81367 8.78487 2.93773 7.75696C1.82189 6.44716 2.0007 5.65895 2.02491 5.57303L2.09318 5.3335L2.33094 5.38532C3.99536 5.74774 6.21365 6.22815 7.92002 6.5937Z" fill="url(#paint2_radial_3426_50244)"/>
        <path fill-rule="evenodd" clip-rule="evenodd" d="M7.83465 6.79318C7.57274 7.43838 7.40856 8.13369 7.36048 8.86073C5.41422 8.98162 3.94449 8.61354 3.04969 7.5625C1.96251 6.28585 2.16896 5.55615 2.16896 5.55615C2.16896 5.55615 5.42663 6.27271 7.83465 6.79318Z" fill="#D3F7FF"/>
        <path fill-rule="evenodd" clip-rule="evenodd" d="M16.7902 8.99268C16.7979 9.12457 16.8019 9.25748 16.8019 9.39132C16.8019 10.0026 16.7199 10.5948 16.5664 11.1574C18.8784 11.406 20.3506 11.0644 21.0568 10.1191C21.8686 9.0319 21.5743 8.36875 21.5379 8.2964L21.4356 8.09473L21.2253 8.13571C19.914 8.39083 18.2137 8.71983 16.7902 8.99268Z" fill="url(#paint3_radial_3426_50244)"/>
        <path fill-rule="evenodd" clip-rule="evenodd" d="M16 12.5728C16.24 12.1295 16.4314 11.6561 16.5672 11.1597C17.739 11.0867 19.2954 10.986 20.456 10.9096L20.6177 10.8989L20.671 11.0608C20.6898 11.1189 20.8334 11.6474 20.1025 12.3893C19.4064 13.0956 18.1078 13.1678 16.1327 12.6102C16.0875 12.5975 16.0433 12.585 16 12.5728Z" fill="url(#paint4_radial_3426_50244)"/>
        <path fill-rule="evenodd" clip-rule="evenodd" d="M16.0859 12.4076C16.2618 12.0599 16.4082 11.6948 16.5218 11.3156C18.1529 11.2312 20.5304 11.0986 20.5304 11.0986C20.5304 11.0986 20.6953 11.585 19.9999 12.2872C19.3046 12.9895 17.9992 12.9621 16.215 12.445C16.171 12.4322 16.128 12.4198 16.0859 12.4076Z" fill="#FF95EC"/>
        <path fill-rule="evenodd" clip-rule="evenodd" d="M16.7993 9.17901C16.8015 9.24937 16.8026 9.32 16.8026 9.39088C16.8026 9.92762 16.7394 10.4496 16.6201 10.9498C18.7199 11.1714 20.2082 10.9116 20.9229 9.95373C21.7138 8.89411 21.4037 8.27979 21.4037 8.27979C21.4037 8.27979 18.8718 8.77788 16.7993 9.17901Z" fill="#85FFF9"/>
        <path fill-rule="evenodd" clip-rule="evenodd" d="M16.8005 9.22784C16.779 8.33103 16.5811 7.4779 16.2402 6.70185C17.9394 6.3047 20.1489 5.78308 21.8066 5.38978L22.0434 5.3335L22.1069 5.57297C22.1294 5.65889 22.293 6.44767 21.1632 7.7831C20.2816 8.82494 18.8473 9.30197 16.8005 9.22784Z" fill="url(#paint5_radial_3426_50244)"/>
        <path fill-rule="evenodd" clip-rule="evenodd" d="M16.7891 8.97046C16.744 8.24269 16.5826 7.54641 16.3232 6.89999C18.721 6.33494 21.9646 5.55811 21.9646 5.55811C21.9646 5.55811 22.1566 6.28761 21.0558 7.58925C20.1548 8.65494 18.7018 9.05201 16.7891 8.97046Z" fill="#D3F7FF"/>
        <path fill-rule="evenodd" clip-rule="evenodd" d="M11.8771 3.01142C11.9715 2.99373 12.0685 2.99662 12.1616 3.01989L12.1682 3.02153L12.1898 3.02686C12.2092 3.03162 12.2382 3.03873 12.2764 3.04795C12.3527 3.06639 12.4653 3.09327 12.6091 3.12664C12.8966 3.1934 13.3083 3.28603 13.8026 3.38901C14.793 3.59535 16.1072 3.84154 17.416 4.00515C17.7496 4.04685 18 4.33045 18 4.66667C18 7.37569 17.6636 9.74036 16.7686 11.62C15.8596 13.5289 14.3877 14.9068 12.2108 15.6325C12.074 15.6781 11.926 15.6781 11.7892 15.6325C9.61231 14.9068 8.14043 13.5289 7.23143 11.62C6.33638 9.74036 6 7.37569 6 4.66667C6 4.34586 6.22849 4.07054 6.54381 4.01142L11.8771 3.01142Z" fill="#FC6BD1"/>
        <path fill-rule="evenodd" clip-rule="evenodd" d="M11.333 8V6H12.6663V8H14.6663V9.33333H12.6663V11.3333H11.333V9.33333H9.33301V8H11.333Z" fill="white"/>
    </g>
    <defs>
        <radialGradient id="paint0_radial_3426_50244" cx="0" cy="0" r="1" gradientUnits="userSpaceOnUse" gradientTransform="translate(-71.4627 -222.438) rotate(-116.048) scale(199.656 52.8908)">
            <stop stop-color="white"/>
            <stop offset="1" stop-color="white"/>
        </radialGradient>
        <radialGradient id="paint1_radial_3426_50244" cx="0" cy="0" r="1" gradientUnits="userSpaceOnUse" gradientTransform="translate(-83.7657 -368.091) rotate(-113.209) scale(265.047 68.0262)">
            <stop stop-color="white"/>
            <stop offset="1" stop-color="white"/>
        </radialGradient>
        <radialGradient id="paint2_radial_3426_50244" cx="0" cy="0" r="1" gradientUnits="userSpaceOnUse" gradientTransform="translate(-100.36 -427.94) rotate(-115.64) scale(306.107 93.3441)">
            <stop stop-color="white"/>
            <stop offset="1" stop-color="white"/>
        </radialGradient>
        <radialGradient id="paint3_radial_3426_50244" cx="0" cy="0" r="1" gradientUnits="userSpaceOnUse" gradientTransform="translate(159.693 -182.949) rotate(-66.6156) scale(263.721 70.0501)">
            <stop stop-color="white"/>
            <stop offset="1" stop-color="white"/>
        </radialGradient>
        <radialGradient id="paint4_radial_3426_50244" cx="0" cy="0" r="1" gradientUnits="userSpaceOnUse" gradientTransform="translate(105.431 -129.001) rotate(-63.9636) scale(200.711 53.9297)">
            <stop stop-color="white"/>
            <stop offset="1" stop-color="white"/>
        </radialGradient>
        <radialGradient id="paint5_radial_3426_50244" cx="0" cy="0" r="1" gradientUnits="userSpaceOnUse" gradientTransform="translate(204.53 -187.125) rotate(-64.1611) scale(305.726 96.1009)">
            <stop stop-color="white"/>
            <stop offset="1" stop-color="white"/>
        </radialGradient>
        <clipPath id="clip0_3426_50244">
            <rect width="24" height="18" fill="white"/>
        </clipPath>
    </defs>
</svg>
