<svg xmlns="http://www.w3.org/2000/svg" width="22" height="22" viewBox="0 0 22 22">
    <path fill="#FFF" fill-rule="evenodd" d="M11.03 20.729a.555.555 0 1 1 0-1.11.555.555 0 0 1 0 1.11zm4.786-5.323c-.487 0-.905.246-1.109.6l-1.878-.516c.015-.79.315-1.444.72-1.64l.517-9.236L11.029 1 7.993 4.614l.517 9.236c.405.196.705.85.72 1.64l-1.878.515c-.204-.353-.622-.599-1.11-.599-.686 0-1.242.481-1.242 1.075 0 .593.556 1.075 1.243 1.075.487 0 .905-.246 1.109-.6l2.627.722v1.354c-.35.258-.576.638-.576 1.066 0 .777.728 1.407 1.626 1.407.899 0 1.627-.63 1.627-1.407 0-.428-.226-.808-.576-1.066v-1.354l2.627-.721c.204.353.622.599 1.11.599.686 0 1.242-.482 1.242-1.075 0-.594-.556-1.075-1.243-1.075z"/>
</svg>
