<svg xmlns="http://www.w3.org/2000/svg" width="22" height="22" viewBox="0 0 22 22">
    <g fill="#FFF" fill-rule="evenodd">
        <path d="M19.622 19.332a.4.4 0 1 1-.565-.564.4.4 0 0 1 .565.564zm-.376-1.445l-2.594-2.596.913-1.763a.892.892 0 0 0 .918-1.479.892.892 0 1 0-1.478.918l-1.261.654c-.458-.474-.69-1.011-.6-1.333l-1.333-1.334-2.567-2.567L6.046 3.19l-4.07-1.502 1.503 4.07 9.099 9.098c.32-.09.859.142 1.332.6l-.653 1.26a.892.892 0 0 0-.918 1.479.893.893 0 1 0 1.479-.918l1.763-.914 2.595 2.595c-.026.33.082.67.335.922a1.172 1.172 0 1 0 1.657-1.658 1.164 1.164 0 0 0-.922-.334z"/>
        <path d="M3.43 19.332a.4.4 0 1 1-.564-.564.4.4 0 0 1 .565.564m6.48-4.477l1.076-1.076-2.575-2.56-1.069 1.07c.09.32-.141.858-.6 1.332l-1.26-.654a.892.892 0 0 0-1.479-.918.892.892 0 1 0 .918 1.479l.914 1.763-2.595 2.596c-.33-.027-.669.081-.921.334a1.172 1.172 0 1 0 1.657 1.658c.253-.253.36-.592.335-.922l2.595-2.595 1.763.914a.892.892 0 0 0 1.479.918.892.892 0 1 0-.918-1.478l-.654-1.261c.474-.458 1.012-.69 1.333-.6M19.01 5.756l1.501-4.07-4.069 1.503-4.945 4.946 2.552 2.582z"/>
    </g>
</svg>
