<svg xmlns="http://www.w3.org/2000/svg" width="22" height="22" viewBox="0 0 22 22">
    <path fill="#FFF" fill-rule="evenodd" d="M18.948 9.393L15.574 5.08a.204.204 0 0 0-.16-.081h-3.205c-.18 0-.278.236-.16.388L15.393 9.7c.04.052.1.081.161.081h3.234c.181 0 .279-.236.16-.388zm-5.934 8.37l5.852-6.827c.128-.15.033-.396-.154-.396h-3.055a.212.212 0 0 0-.193.137l-2.796 6.827c-.099.241.182.451.346.26zm1.621-6.893c.064-.155-.039-.331-.193-.331H7.561c-.155 0-.257.177-.193.332l3.61 8.809.025.058 3.57-8.717.062-.15zm-11.501.066l5.861 6.838c.165.192.446-.018.347-.259l-2.803-6.838a.212.212 0 0 0-.193-.138H3.287c-.186 0-.282.247-.153.397zm4.773-1.154h6.188c.181 0 .279-.236.16-.388l-1.632-2.105-1.46-1.884a.199.199 0 0 0-.322 0L8.55 8.357l-.804 1.037c-.118.152-.02.388.16.388zM9.91 5.444l.044-.056c.118-.152.02-.388-.16-.388H6.584c-.061 0-.12.03-.16.081L3.052 9.393c-.119.152-.021.388.16.388h3.235c.062 0 .12-.03.16-.081L9.91 5.444z"/>
</svg>
