<svg xmlns="http://www.w3.org/2000/svg" width="22" height="22" viewBox="0 0 22 22">
    <g fill="#FFF" fill-rule="evenodd">
        <path d="M6.713 14.933a1.867 1.867 0 1 1-3.735 0 1.867 1.867 0 0 1 3.735 0M19.754 14.933a1.867 1.867 0 1 1-3.734 0 1.867 1.867 0 0 1 3.734 0"/>
        <path d="M21.323 14.982v-.772a3.49 3.49 0 0 0-.061-.03l-.015-.167c-.044-.165-.32-1.329-.407-1.464-.17-.258-.472-.384-.772-.515-.818-.356-3.07-.8-3.75-.817.024.002.015.002-.035 0h.036c-.108-.01-.948-.063-1.295-.017.054-.02.097-.068-2.424-1.9-.052-.039-1.331-.407-1.38-.27.014.027.964 1.273 1.422 1.71.035.165.152.362.152.606-.772.025-3.416-.23-3.416-.23s-3.796-.658-3.821-.673c-.02-.784-.031-.665-.06-.893.062.016-.71-.197-.83.344a1.499 1.499 0 0 0-.06.408c-.372-.092-1.253-.304-1.711-.304-.438 0-2.734.135-2.786.163-.158.053-.102 1.212-.094 1.435.092.087.285.063.416.09 0 .304.238 1.696.137 1.862-.024.046-.433.167-.494.2.01.227.279 1.325.31 1.416.07.015.125.03.213.03l.06.227c.188.378.333.322 1.076.34.1.02.529.234.529.234h.506l-.002-.012a2.311 2.311 0 0 1-.26-1.05 2.337 2.337 0 1 1 4.674 0c0 .384-.102.742-.267 1.062h8.84a2.309 2.309 0 0 1-.266-1.063 2.337 2.337 0 1 1 4.674 0c0 .383-.101.74-.264 1.058l1.03-.04c.332-.099.407-.45.19-.604.015-.032-.02-.249.053-.364h.152z"/>
    </g>
</svg>
