<svg xmlns="http://www.w3.org/2000/svg" width="22" height="22" viewBox="0 0 22 22">
    <path fill="#FFF" fill-rule="evenodd" d="M16.19 17.347c0-.533-.545-1.69-1.181-2.094.873-.019 2.108-.625 2.726-1.23l-1.545 3.324zM11 16.65c-.109-.378-1.4-2.01-1.799-2.2.89-.773 1.69-2.37 1.799-3.384.11 1.014.909 2.611 1.8 3.385-.4.189-1.69 1.82-1.8 2.199zM9.02 7.538c.599-.386 1.598-1.397 1.98-2.003.382.606 1.381 1.617 1.98 2.003-.599.385-1.598 1.395-1.98 2.002-.382-.607-1.381-1.617-1.98-2.002zm-3.21 9.81l-1.545-3.326c.618.606 1.854 1.212 2.726 1.23-.635.405-1.181 1.562-1.181 2.095zm11.488-7.386c.538.407 1.216 1.579.728 2.352-1.05 1.663-3.38 1.759-4.606 1.596 1.363-.683 2.123-2.081 2.009-3.915a6.904 6.904 0 0 0-.033-.362c-.002-.017-.65-.04-1.442.176-.642.173-1.378.504-1.942 1.12.264-.441.576-.915.917-1.377.564-.768 1.21-1.502 1.854-2.002-1.17-.91-2.593-2.588-3.595-4.233L11 3c-.061.105-.124.211-.188.317C9.81 4.962 8.387 6.64 7.218 7.55c.644.5 1.288 1.234 1.853 2.002.34.462.652.936.917 1.377-.565-.616-1.3-.947-1.941-1.12-.792-.216-1.44-.193-1.442-.176a6.916 6.916 0 0 0-.034.362c-.114 1.834.646 3.232 2.01 3.915-1.228.163-3.556.067-4.607-1.596-.488-.773.19-1.945.728-2.352C3.268 9.823 1.984 9.425 1 8.854l4.628 9.375S6.555 19 11 19s5.372-.771 5.372-.771L21 8.854c-.984.571-2.268.969-3.702 1.108z"/>
</svg>
