<svg xmlns="http://www.w3.org/2000/svg" width="22" height="22" viewBox="0 0 22 22">
    <path fill="#FFF" fill-rule="evenodd" d="M16.827 7.546v4.961a10.15 10.15 0 0 0-5.111-1.79c.147 1.759.85 3.374 1.947 4.7H8.266c1.098-1.326 1.8-2.941 1.947-4.7-1.913.136-3.67.781-5.11 1.79V7.546a10.152 10.152 0 0 0 5.11 1.79c-.147-1.759-.85-3.375-1.947-4.7h5.397c-1.098 1.325-1.8 2.941-1.947 4.7a10.15 10.15 0 0 0 5.11-1.79M2.744 4.614c.189 4.912 1.531 13.268 8.221 15.872 6.69-2.604 8.033-10.96 8.222-15.872-2.079-.619-5.68-1.841-8.222-3.514-2.541 1.673-6.143 2.895-8.221 3.514"/>
</svg>
