<svg xmlns="http://www.w3.org/2000/svg" width="22" height="22" viewBox="0 0 22 22">
    <g fill="#FFF" fill-rule="evenodd">
        <path d="M6.417 7.68a7.61 7.61 0 0 0 4.037 1.538 7.613 7.613 0 0 0-1.537-4.036h4.262a7.613 7.613 0 0 0-1.538 4.036 7.61 7.61 0 0 0 4.037-1.537v4.262a7.61 7.61 0 0 0-4.037-1.538 7.613 7.613 0 0 0 1.538 4.037H8.917a7.613 7.613 0 0 0 1.537-4.037 7.61 7.61 0 0 0-4.037 1.538V7.68zM4.121 20.213l6.927-4.491 6.927 4.49V4.532H4.12v15.68zM3.547 4.171h14.915v-2.32H3.547zM2.5 3.083c0 .31.25.56.56.56h.157v-1.12H3.06a.56.56 0 0 0-.559.56M18.95 2.524h-.158v1.119h.158a.56.56 0 1 0 0-1.12"/>
    </g>
</svg>
