<svg xmlns="http://www.w3.org/2000/svg" width="22" height="22" viewBox="0 0 22 22">
    <g fill="#FFF" fill-rule="evenodd">
        <path d="M17.844 20.103H4.12L3.653 11.2h14.583zM7.3 3.515c.442.02 1.624 1.21 2.702 2.673l-1.44.568a1.727 1.727 0 0 1-2.259-.978c-.338-.888.108-1.899.997-2.263m7.289 0c.889.364 1.335 1.375.996 2.263a1.727 1.727 0 0 1-2.258.978l-1.44-.568c1.078-1.463 2.26-2.653 2.702-2.673m3.5 3.598h-1.57c.18-.237.34-.494.452-.787a3.302 3.302 0 0 0-1.868-4.23c-.878-.348-1.947.25-3.362 1.884-.292.336-.561.674-.797.982a20.616 20.616 0 0 0-.796-.982C8.733 2.347 7.663 1.748 6.785 2.095a3.302 3.302 0 0 0-1.867 4.23c.112.294.272.55.452.788H3.8a.81.81 0 0 0-.8.815v2.295h15.89V7.928a.811.811 0 0 0-.802-.815"/>
    </g>
</svg>
