<svg xmlns="http://www.w3.org/2000/svg" width="22" height="22" viewBox="0 0 22 22">
    <path fill="#FFF" fill-rule="evenodd" d="M19.51 8.588c0 .285.669.626.122 1.139-.548.512-1.156 0-1.156 0l.251.925H17.62l.4-.918-.15.1c-1.48.823-1.395-.441-1.395-.441s.37-.231.41-.718c.04-.487-1.107-2.085-1.107-2.085s-.921 1.349-1.135 1.835c-.213.487.523.948.523.948-.107 1.345-1.631.421-1.631.421l.428.858h-1.088l.416-.954-.15.1c-1.481.824-1.396-.441-1.396-.441s.371-.23.411-.718C12.195 8.152 11.047 5 11.047 5s-.92 2.903-1.134 3.39c-.213.486.523.947.523.947-.108 1.345-1.632.421-1.632.421l.446.894H8.161l.399-.913-.15.1c-1.481.824-1.395-.441-1.395-.441s.37-.23.41-.717c.04-.487-1.108-2.085-1.108-2.085s-.92 1.348-1.134 1.835c-.214.487.523.947.523.947-.108 1.345-1.632.422-1.632.422l.426.852H3.49l.364-.943s-1.566.943-1.588-.643c0 0 .601-.24.3-.743C2.267 7.822 1 6.537 1 6.537l2.357 10.101 15.575.029L21 6.625s-1.49 1.679-1.49 1.963"/>
</svg>
