<svg xmlns="http://www.w3.org/2000/svg" width="22" height="22" viewBox="0 0 22 22">
    <g fill="#FFF" fill-rule="evenodd">
        <path d="M17.444 10.935l-.333-3.111a.546.546 0 0 0-.543-.483h-2.17v1.085c0 .3-.105.556-.317.768a1.046 1.046 0 0 1-.768.318c-.3 0-.556-.106-.768-.318a1.046 1.046 0 0 1-.318-.768V7.34H8.971v1.085c0 .3-.106.556-.318.768a1.043 1.043 0 0 1-.767.318c-.299 0-.555-.106-.767-.318a1.046 1.046 0 0 1-.318-.768V7.34h-2.17a.522.522 0 0 0-.365.14.543.543 0 0 0-.178.343l-.332 3.11c1.963.74 4.315 1.174 6.844 1.174 2.53 0 4.881-.433 6.843-1.173"/>
        <path d="M10.6 13.179c-2.574 0-4.946-.436-6.957-1.185l-.64 5.989c-.016.159.029.3.137.424a.52.52 0 0 0 .406.178h14.108a.541.541 0 0 0 .543-.602l-.64-5.99c-2.011.75-4.383 1.186-6.957 1.186M7.914 8.968a.525.525 0 0 0 .382-.16.523.523 0 0 0 .16-.382v-2.17c0-.6.213-1.11.636-1.536a2.097 2.097 0 0 1 1.535-.635c.599 0 1.11.212 1.535.635.423.425.636.936.636 1.535v2.171c0 .146.053.274.16.381a.525.525 0 0 0 .382.161.525.525 0 0 0 .382-.16.523.523 0 0 0 .16-.382v-2.17c0-.9-.317-1.667-.953-2.303A3.136 3.136 0 0 0 10.627 3c-.9 0-1.666.318-2.302.954a3.135 3.135 0 0 0-.953 2.302v2.171c0 .146.053.274.16.381a.521.521 0 0 0 .382.161"/>
    </g>
</svg>
