<svg xmlns="http://www.w3.org/2000/svg" width="22" height="22" viewBox="0 0 22 22">
    <g fill="#FFF" fill-rule="evenodd">
        <path d="M10.107 21.432h1.619l.324-3.297H9.88zM7.167 19.927l1.094.504.92-2.406-1.77-.588zM12.75 18.025l.92 2.406 1.093-.505-.243-2.49z"/>
        <path d="M18.16 13.884l-2.558-2.1c.006-.17.016-.335.016-.515 0-4.87-3.68-9.961-4.653-9.961-.972 0-4.652 5.091-4.652 9.961 0 .18.009.345.016.515l-2.559 2.1a.544.544 0 0 0-.27.466v3.02c0 .427.483.69.859.467l3.573-1.563c.868.828 1.973 1.12 3.033 1.12 1.06 0 2.165-.292 3.034-1.12l3.573 1.563c.376.222.858-.04.858-.467v-3.02a.544.544 0 0 0-.27-.466"/>
    </g>
</svg>
