<svg xmlns="http://www.w3.org/2000/svg" width="22" height="22" viewBox="0 0 22 22">
    <path fill="#FFF" fill-rule="evenodd" d="M11 20c2.333 0 5.907-.448 6.876-.769l.436-1.207c-1.702.415-5.016.86-7.311.86-2.296 0-5.609-.445-7.311-.86l-.229-.634.663 1.841c.97.32 4.545.769 6.877.769zm-.184-4.663a.181.181 0 0 1 .154-.089c.063 0 .121.034.155.089a5.736 5.736 0 0 0 3.071 2.44c-1.115.12-2.243.197-3.195.197-.966 0-2.112-.08-3.242-.202a5.734 5.734 0 0 0 3.057-2.435zm.095-8.683a.077.077 0 0 1 .067-.04c.027 0 .053.015.067.04.188.315.705 1.288.705 2.439s-.517 2.124-.705 2.439a.078.078 0 0 1-.067.039.077.077 0 0 1-.067-.04c-.188-.314-.705-1.287-.705-2.438 0-1.151.517-2.124.705-2.44zm7.63 10.736l2.45-6.795a.168.168 0 0 0-.034-.17.146.146 0 0 0-.159-.039c-.757.282-1.955 1.519-2.407 2.951-.556-.9-2.191-.658-2.296.433a.11.11 0 0 0 .087.12c.948.162 1.54 2.779-1.395 2.779-1.76 0-2.494-1.805-2.211-3.204.279-1.38 1.541-2.37 3.057-1.663.03.015.065.013.095-.004a.113.113 0 0 0 .054-.084c.198-1.52-1.495-2.547-2.903-1.74.116-2.389-.848-5.567-1.753-6.906A.151.151 0 0 0 11 3a.152.152 0 0 0-.125.068c-.905 1.339-1.87 4.517-1.753 6.906-1.409-.807-3.1.22-2.903 1.74a.111.111 0 0 0 .054.084c.03.017.065.019.095.004 1.516-.707 2.778.284 3.057 1.663.283 1.4-.45 3.204-2.212 3.204-2.932 0-2.344-2.612-1.396-2.779a.112.112 0 0 0 .088-.123c-.107-1.088-1.74-1.328-2.297-.43-.451-1.434-1.65-2.672-2.408-2.952a.145.145 0 0 0-.158.04.166.166 0 0 0-.033.167L3.46 17.39c1.618.429 5.137.918 7.54.918 2.403 0 5.921-.49 7.54-.918z"/>
</svg>
