<svg xmlns="http://www.w3.org/2000/svg" xmlns:xlink="http://www.w3.org/1999/xlink" width="22" height="22" viewBox="0 0 22 22">
    <defs>
        <path id="a" d="M.246 13.56H19.09V.425H.246z"/>
        <path id="c" d="M3.318.271H.323v2.951h2.995V.272z"/>
    </defs>
    <g fill="none" fill-rule="evenodd">
        <g transform="translate(1.17 4.599)">
            <mask id="b" fill="#fff">
                <use xlink:href="#a"/>
            </mask>
            <path fill="#FFF" d="M9.668 12.35c-1.334 0-2.416-1.065-2.416-2.38 0-1.316 1.082-2.381 2.416-2.381 1.335 0 2.417 1.065 2.417 2.38 0 1.316-1.082 2.382-2.417 2.382m8.674-8.324a.743.743 0 0 0-.749.738c0 .267.147.5.363.628l-3.196 3.15-4.79-6.708a.736.736 0 0 0 .447-.673.743.743 0 0 0-.749-.737.743.743 0 0 0-.748.737c0 .3.183.559.445.673L4.576 8.543 1.38 5.393a.732.732 0 0 0 .363-.628.743.743 0 0 0-.748-.738.743.743 0 0 0-.749.738c0 .406.335.737.749.737v8.058h17.347V5.502c.413 0 .748-.33.748-.737a.743.743 0 0 0-.748-.738" mask="url(#b)"/>
        </g>
        <g transform="translate(9.034 3.63)">
            <mask id="d" fill="#fff">
                <use xlink:href="#c"/>
            </mask>
            <path fill="#FFF" d="M3.318 1.747c0 .815-.67 1.475-1.498 1.475-.827 0-1.497-.66-1.497-1.475C.323.932.993.27 1.82.27c.827 0 1.498.66 1.498 1.476" mask="url(#d)"/>
        </g>
        <path fill="#FFF" d="M3.674 9.327c0 .815-.67 1.476-1.498 1.476-.827 0-1.497-.66-1.497-1.476 0-.815.67-1.475 1.497-1.475.827 0 1.498.66 1.498 1.475M21.03 9.327c0 .815-.67 1.476-1.498 1.476-.827 0-1.497-.66-1.497-1.476 0-.815.67-1.475 1.497-1.475.827 0 1.498.66 1.498 1.475"/>
    </g>
</svg>
