<svg xmlns="http://www.w3.org/2000/svg" width="22" height="22" viewBox="0 0 22 22">
    <g fill="#FFF" fill-rule="evenodd">
        <path d="M4.183 2.983c0-.976-.824-1.767-1.841-1.767C1.324 1.216.5 2.007.5 2.983c0 .649.368 1.21.91 1.517v14.693h1.863V4.5c.542-.307.91-.868.91-1.517"/>
        <path d="M15.941 12.641a7.132 7.132 0 0 0-3.69-1.349 6.524 6.524 0 0 0 1.406 3.542H9.76a6.524 6.524 0 0 0 1.406-3.542 7.13 7.13 0 0 0-3.69 1.35v-3.74a7.13 7.13 0 0 0 3.69 1.349A6.524 6.524 0 0 0 9.76 6.709h3.897a6.526 6.526 0 0 0-1.406 3.542 7.132 7.132 0 0 0 3.69-1.35v3.74zM21.5 4.563H3.605v.674h.407V16.306h-.407v.674H21.5l-2.878-6.208L21.5 4.563z"/>
    </g>
</svg>
