<svg xmlns="http://www.w3.org/2000/svg" width="22" height="22" viewBox="0 0 22 22">
    <path fill="#FFF" fill-rule="evenodd" d="M13.824 13.64c0 .538-.354.987-.798.987H8.969c-.443 0-.8-.45-.8-.987v-2.373c0-1.858 1.245-3.356 2.782-3.356h.094c1.536 0 2.78 1.498 2.78 3.356v2.373zm3.742-6.506h.856V2h-3.595v2.25h-1.989V2H9.243v2.25H7.216L7.196 2H3.572v5.134h.856l1.555 3.009a.86.86 0 0 1 .096.402v3.578a.805.805 0 0 1-.308.652l-1.208.877c-.19.138-.303.385-.303.653v2.944c0 .42.274.751.623.751h12.228c.348 0 .623-.33.623-.75v-2.945c0-.268-.112-.515-.303-.653l-1.211-.877c-.19-.137-.304-.385-.304-.652v-3.578a.86.86 0 0 1 .095-.402l1.555-3.009z"/>
</svg>
