<svg xmlns="http://www.w3.org/2000/svg" width="22" height="22" viewBox="0 0 22 22">
    <path fill="#FFF" fill-rule="evenodd" d="M12.2 1.5H9.8l.77 2.366-.088.08-2.606-.876v2.319l2.606-.693.089.058c.177.127-.19 2.082-.731 3.081l-.06.114-.08.02s-.68-.959-2.476-.959c-2.251 0-3.78 1.827-3.722 3.627.101 2.363 4.09 9.428 4.09 9.428l.218.3h6.379l.218-.3s3.98-7.065 4.068-9.428c.092-1.8-1.45-3.627-3.7-3.627-1.766 0-2.477.959-2.477.959l-.098-.02-.07-.114c-.503-1-.85-2.954-.702-3.081l.098-.058 2.597.693v-2.32l-2.597.878-.098-.081L12.2 1.5zM11 7.032s-.466 1.242-.583 1.452c0 0 .315.454.422.751.058.137.11.276.161.423.03-.136.089-.273.145-.423.132-.297.422-.751.422-.751C11.46 8.274 11 7.032 11 7.032zm-3.695 8.959a27.089 27.089 0 0 1-1.425-2.647c-.41-.929-.679-1.808-.754-2.19-.25-1.186.797-2.326 2.085-2.54 1.18-.18 2.22.382 2.69 1.478.235.583.319.96.319 1.597.032 2.011-1.007 3.55-2.915 4.302zm7.477 0c-1.908-.752-2.954-2.29-2.922-4.302.008-.637.102-1.014.327-1.597.443-1.096 1.49-1.659 2.681-1.479 1.288.215 2.343 1.355 2.093 2.542-.083.381-.37 1.26-.77 2.189-.37.82-.888 1.781-1.409 2.647z"/>
</svg>
