<svg xmlns="http://www.w3.org/2000/svg" width="22" height="22" viewBox="0 0 22 22">
    <path fill="#FFF" fill-rule="evenodd" d="M12.527 13.423l-1.535 3.12-1.535-3.12-3.432-.5 2.483-2.43-.586-3.43 3.07 1.62 3.07-1.62-.586 3.43 2.484 2.43-3.433.5zm4.304-6.363c0-2.555 1.585-3.674 1.585-3.674s-.036-.097-1.116-.972c-1.236.72-2.299.972-3.18.972C12.054 3.386 10.98 2 10.98 2S9.908 3.386 7.842 3.386c-.881 0-1.943-.252-3.18-.972-1.079.875-1.116.972-1.116.972s1.586 1.12 1.586 3.674S3 9.76 3 13.116c0 5.21 6.687 5.646 7.89 7.846l.091.195.09-.195c1.204-2.2 7.892-2.636 7.892-7.846 0-3.356-2.132-3.502-2.132-6.056z"/>
</svg>
