<svg xmlns="http://www.w3.org/2000/svg" width="22" height="22" viewBox="0 0 22 22">
    <path fill="#FFF" fill-rule="evenodd" d="M10.925 16.353c-.045.042-.09.087-.133.137a1.86 1.86 0 0 0-.136-.14c-.415-.405-1.183-.926-1.542-1.219-.688-.56-.89-1.117-.892-1.583-.005-.532.288-.967.466-1.092.318-.231.586-.31.815-.31.315 0 .576.154.777.339.2.184.331.396.375.474l.137.24.137-.24c.044-.078.175-.29.374-.474.202-.185.463-.339.778-.339.228 0 .497.079.815.31.178.125.47.56.465 1.092-.002.466-.204 1.022-.891 1.583-.36.293-1.127.814-1.545 1.222zm8.86-6.153a.59.59 0 0 0 .24.473c-.229.288-.465.561-.705.813-1.145 1.164-1.896 1.236-2.344.918-.447-.318-.7-1.138-.484-2.618.075-.463.185-.963.323-1.482a.787.787 0 0 0 .98-.757.787.787 0 0 0-.795-.779.787.787 0 0 0-.794.78c0 .31.187.579.456.703-1.05 2.08-2.189 3.372-3.235 3.331-1.13-.044-1.79-2.054-2.301-4.79a.906.906 0 0 0 .793-.891A.91.91 0 0 0 11 5a.91.91 0 0 0-.919.9c0 .457.346.832.793.892-.51 2.736-1.17 4.746-2.301 4.79-1.046.041-2.186-1.252-3.235-3.33a.777.777 0 0 0 .456-.705A.787.787 0 0 0 5 6.768a.787.787 0 0 0-.794.78.787.787 0 0 0 .98.756c.137.519.247 1.02.322 1.482.216 1.48-.036 2.3-.484 2.618-.448.318-1.2.246-2.344-.918-.24-.252-.476-.525-.706-.813a.59.59 0 0 0 .24-.473.602.602 0 0 0-.607-.596A.602.602 0 0 0 1 10.2c0 .328.272.595.607.595a.615.615 0 0 0 .247-.051c.004.002 2.266 4.73 3.013 7.903.903-.58 3.308-.995 6.133-.995s5.23.415 6.133.995c.747-3.174 3.01-7.901 3.01-7.901.079.03.162.05.25.05A.602.602 0 0 0 21 10.2a.602.602 0 0 0-.607-.596.602.602 0 0 0-.608.596z"/>
</svg>
