<svg xmlns="http://www.w3.org/2000/svg" width="22" height="22" viewBox="0 0 22 22">
    <path fill="#FFF" fill-rule="evenodd" d="M19.653 7.8s-1.144-.122-.7.898c0 0 .607.705.42.923-.187.219-.584.437-.748-.413-.163-.85-.934-.898-1.12-.17 0 0-.63-.607-.887-.097-.254.504-.849 1.882.326 1.848l.047-.002s-.312.569.021.846.773 0 .986-.291c.213-.291.666-.291.759-.291.093 0 .2.914-.666 1.496-.866.582-2.677.402-3.09-1.87 0 0-1.266 1.826-2.925 1.038l.004-.005.018-.014v-.007c.248-.323.397-.737.397-1.19 0-.585-.25-1.107-.64-1.448-.169-.603-.36-.867-.36-.867l1.844.329.038-1.976-1.882.329.264-1.83L9.802 5l.301 1.866-1.92-.366-.037 2.013 1.806-.293c-.099.192-.178.487-.242.823-.395.34-.65.866-.65 1.456 0 .455.151.87.401 1.194-.739.308-1.716.285-2.76-.92 0 0-.266 2.08-1.944 1.733-1.679-.347-1.386-1.524-1.386-1.524s.12-.042.36.166c.24.208.8.956 1.332.319 0 0 .24-.263.013-.54-.226-.278.08-.111.16-.111s.56-.014.56-.596-.44-1.843-1.213-1.302c0 0-.013-.278-.306-.458s-.866.097-.932.748c-.067.652-.4.776-.56.721-.16-.055-.44-.291-.186-.582.253-.29.839-.762.612-1.205-.226-.444-.506-.416-.879-.194 0 0 .107-.61-.266-.79C1.693 6.978 1 7.504 1 7.504l3.02 9.361L17.588 17 21 7.43s-1.067-.747-1.347.37"/>
</svg>
