<svg xmlns="http://www.w3.org/2000/svg" width="22" height="22" viewBox="0 0 22 22">
    <g fill="#FFF" fill-rule="evenodd">
        <path d="M3.978 16.545l-3.22-3.174c-.552-.55-.159-1.488.628-1.482l8.74.047c.372 0 .741.074 1.083.208l5.123 2.021c.347.14.717.209 1.093.209h3.228c.4 0 .682.382.558.758l-.657 1.975a1.18 1.18 0 0 1-1.117.8H7.315a4.795 4.795 0 0 1-3.337-1.362M18.21 8.86l-.086-.675a1.104 1.104 0 0 0-.769-.79l-3.835-.447a1.217 1.217 0 0 0-1.191.3L10.695 8.86h7.515z"/>
        <path d="M10.125 9.422l-1.96 1.934h2.097c.36 0 .718.07 1.058.197l5.206 1.987a2.86 2.86 0 0 0 1.058.197h1.45l-.729-4.315h-8.18z"/>
    </g>
</svg>
