<svg xmlns="http://www.w3.org/2000/svg" width="22" height="22" viewBox="0 0 22 22">
    <path fill="#FFF" fill-rule="evenodd" d="M11 17.358L9.51 15.13 11 12.903l1.49 2.227L11 17.358zm8.56-4.394s-1.01-.593-1.072.53c0 0-.943-.26-1.775-1.086.014-.027.028-.053.04-.08.184-.43.085-.92-.213-1.3l.019.001c.582-1.154.03-2.746.03-2.746-1.224.656-1.378 2.09-1.378 2.09 0 .01.004.017.005.026-.509.012-.966.277-1.16.73l-.007.02-1.252.02c.004-.044.008-.088.008-.133 0-.468-.217-.892-.568-1.197.028-2.074-.577-2.898-.577-2.898l1.74.305.035-1.826-1.775.304.249-1.69L10.063 4l.284 1.724-1.81-.338-.036 1.86 1.704-.27c-.286.543-.4 1.971-.441 2.7-.477.307-.787.801-.787 1.36 0 .065.005.129.013.192l-1.354.02c-.152-.373-.492-.638-.903-.738l.016-.011c-.24-1.275-1.637-2.182-1.637-2.182-.569 1.285.18 2.512.18 2.512.005.007.012.01.018.017-.394.329-.593.824-.472 1.303.025.098.063.19.11.275-.424.514-1.007 1.008-1.681 1.008 0 0-.46-1.061-.98-.437 0 0-.123-.811-1.042-1.186L1 11.747l3.37 7.19L17.477 19 21 11.404s-1.317.405-1.44 1.56z"/>
</svg>
