<svg xmlns="http://www.w3.org/2000/svg" width="22" height="22" viewBox="0 0 22 22">
    <g fill="#FFF" fill-rule="evenodd">
        <path d="M15.279 6.424H6.614c-.768 0-1.397.615-1.397 1.367l1.146 8.264c0 .752.629 1.368 1.397 1.368h1.027V14.68c0-1.194.972-2.173 2.16-2.173 1.187 0 2.158.979 2.158 2.173v2.743h1.028c.768 0 1.397-.616 1.397-1.368l1.146-8.264c0-.752-.63-1.367-1.397-1.367"/>
        <path d="M11.256 20.526h-.619a1.183 1.183 0 0 1-1.175-1.184V14.43c0-.652.528-1.183 1.175-1.183h.619c.646 0 1.175.531 1.175 1.183v4.913c0 .65-.53 1.184-1.175 1.184M12.983 4.05c0 1.133-.911 2.051-2.036 2.051a2.044 2.044 0 0 1-2.038-2.05c0-1.133.912-2.05 2.038-2.05 1.125 0 2.036.917 2.036 2.05"/>
        <path d="M9.035 4.734H7.852a.896.896 0 0 1-.363-.077l-.996-.444a.88.88 0 0 0-.363-.078H4.778a.783.783 0 1 1 0-1.567h1.376c.13 0 .256.028.374.082l.941.435a.888.888 0 0 0 .374.082h1.192a.783.783 0 1 1 0 1.567M12.857 4.734h1.183c.125 0 .25-.027.364-.077l.996-.444a.88.88 0 0 1 .363-.078h1.352a.783.783 0 1 0 0-1.567h-1.377a.888.888 0 0 0-.374.082l-.94.435a.888.888 0 0 1-.374.082h-1.193a.783.783 0 1 0 0 1.567"/>
    </g>
</svg>
