<svg xmlns="http://www.w3.org/2000/svg" width="22" height="22" viewBox="0 0 22 22">
    <g fill="#FFF" fill-rule="evenodd">
        <path d="M12.997 5.397c-1.256-.485-2.777-.46-3.971 0-.552-1.27 2.404-1.778 3.622-.95.353.24.514.57.349.95M17.012 17.515l-.474 1.487c-.854.316-1.864.089-2.378-.526-.741.888-2.405.892-3.149 0-.745.891-2.408.889-3.15 0-.509.609-1.514.845-2.377.526l-.474-1.487c.566.147 1.418.231 1.418.231 2.297.24 6.763.252 9.166 0 0 0 .851-.084 1.418-.23"/>
        <path d="M16.293 19.771l-.242.76s-1.922.461-5.04.461c-3.119 0-5.04-.461-5.04-.461l-.242-.76c.768.188 1.652-.028 2.132-.601.742.888 2.404.89 3.15 0 .744.892 2.408.888 3.15 0 .482.578 1.37.787 2.132.601M15.395 11.86h.001c-.397 1.883-1.17 4-1.974 5.715-.66.024-1.388.038-2.18.04 1.85-2.657 3.668-8.669-.23-8.669-3.9 0-2.082 6.012-.232 8.669a63.71 63.71 0 0 1-2.18-.04c-.801-1.712-1.576-3.829-1.974-5.714h.001c-.18-.829-.262-1.48-.23-2.174v-.001c.113-2.55 1.938-4.33 4.614-4.33 2.69 0 4.5 1.784 4.614 4.329l-.001.002c.037.72-.06 1.4-.229 2.174M6.693 17.457c-.672-.063-1.21-.145-1.604-.245l-.541-.111c-1.216-1.046-3.063-2.92-3.397-4.903C.647 9.194 2.58 8.582 3.868 8.582c.991 0 1.74.4 2.235.822-.078.81.013 1.511.17 2.304-1.211-.396-2.576.318-2.293 2.131.223 1.427 1.79 2.876 2.713 3.618M20.871 12.198c-.333 1.984-2.18 3.857-3.396 4.903 0 0-.975.246-2.145.356.923-.742 2.489-2.19 2.712-3.618.252-1.612-.781-2.238-1.619-2.238-.248 0-.474.042-.675.107.042-.21.08-.42.112-.63.092-.58.11-1.142.06-1.674a3.406 3.406 0 0 1 2.234-.822c1.288 0 3.22.612 2.717 3.616M12.675 3.257c0 .269-.056.526-.156.76-.405-.187-.928-.293-1.508-.293s-1.103.106-1.508.293a1.935 1.935 0 0 1-.156-.76c0-.704.838-1.586 1.462-2.147a.302.302 0 0 1 .404 0c.625.56 1.462 1.443 1.462 2.147"/>
    </g>
</svg>
