<svg width="150" height="37" viewBox="0 0 150 37" fill="none" xmlns="http://www.w3.org/2000/svg">
  <path d="M0 37H9.27901L14.4983 0H5.21558L0 37ZM20.0672 0L18.8915 8.32377H31.5404L19.9168 37H29.1989L44.1985 0H20.0672ZM72.8572 37H82.1362L87.3549 0H78.0728L72.8572 37ZM59.0464 0H49.7649L44.5487 37H67.7524L68.7938 29.5994H54.8715L59.0464 0ZM148.959 7.40062L150 0H126.799L121.58 37H144.784L145.829 29.5994H131.907L133.043 21.5365H145.109L146.153 14.1389H134.088L135.037 7.4L148.959 7.40062ZM113.804 0L104.008 20.7724L99.8824 0H91.0681L99.234 37H104.803L123.086 0H113.804Z" fill="white"/>
  </svg>
  