<svg width="30" height="30" viewBox="0 0 30 30" fill="none" xmlns="http://www.w3.org/2000/svg">
  <path
    d="M15 2.5C8.125 2.5 2.5 8.125 2.5 15C2.5 21.875 8.125 27.5 15 27.5C21.875 27.5 27.5 21.875 27.5 15C27.5 8.125 21.875 2.5 15 2.5ZM19.625 17.875C20.125 18.375 20.125 19.125 19.625 19.625C19.125 20.125 18.375 20.125 17.875 19.625L15 16.75L12.125 19.625C11.625 20.125 10.875 20.125 10.375 19.625C9.875 19.125 9.875 18.375 10.375 17.875L13.25 15L10.375 12.125C9.875 11.625 9.875 10.875 10.375 10.375C10.875 9.875 11.625 9.875 12.125 10.375L15 13.25L17.875 10.375C18.375 9.875 19.125 9.875 19.625 10.375C20.125 10.875 20.125 11.625 19.625 12.125L16.75 15L19.625 17.875Z"
    fill="#D9D9D9" />
</svg>