<svg width="16" height="16" viewBox="0 0 16 16" fill="none" xmlns="http://www.w3.org/2000/svg">
  <path d="M6.66667 12C6.84348 12 7.01305 11.9298 7.13807 11.8047C7.2631 11.6797 7.33333 11.5102 7.33333 11.3333V7.33334C7.33333 7.15653 7.2631 6.98696 7.13807 6.86194C7.01305 6.73691 6.84348 6.66668 6.66667 6.66668C6.48986 6.66668 6.32029 6.73691 6.19526 6.86194C6.07024 6.98696 6 7.15653 6 7.33334V11.3333C6 11.5102 6.07024 11.6797 6.19526 11.8047C6.32029 11.9298 6.48986 12 6.66667 12ZM13.3333 4.00001H10.6667V3.33334C10.6667 2.80291 10.456 2.2942 10.0809 1.91913C9.70581 1.54406 9.1971 1.33334 8.66667 1.33334H7.33333C6.8029 1.33334 6.29419 1.54406 5.91912 1.91913C5.54405 2.2942 5.33333 2.80291 5.33333 3.33334V4.00001H2.66667C2.48986 4.00001 2.32029 4.07025 2.19526 4.19527C2.07024 4.3203 2 4.48987 2 4.66668C2 4.84349 2.07024 5.01306 2.19526 5.13808C2.32029 5.26311 2.48986 5.33334 2.66667 5.33334H3.33333V12.6667C3.33333 13.1971 3.54405 13.7058 3.91912 14.0809C4.29419 14.456 4.8029 14.6667 5.33333 14.6667H10.6667C11.1971 14.6667 11.7058 14.456 12.0809 14.0809C12.456 13.7058 12.6667 13.1971 12.6667 12.6667V5.33334H13.3333C13.5101 5.33334 13.6797 5.26311 13.8047 5.13808C13.9298 5.01306 14 4.84349 14 4.66668C14 4.48987 13.9298 4.3203 13.8047 4.19527C13.6797 4.07025 13.5101 4.00001 13.3333 4.00001ZM6.66667 3.33334C6.66667 3.15653 6.7369 2.98696 6.86193 2.86194C6.98695 2.73691 7.15652 2.66668 7.33333 2.66668H8.66667C8.84348 2.66668 9.01305 2.73691 9.13807 2.86194C9.2631 2.98696 9.33333 3.15653 9.33333 3.33334V4.00001H6.66667V3.33334ZM11.3333 12.6667C11.3333 12.8435 11.2631 13.0131 11.1381 13.1381C11.013 13.2631 10.8435 13.3333 10.6667 13.3333H5.33333C5.15652 13.3333 4.98695 13.2631 4.86193 13.1381C4.7369 13.0131 4.66667 12.8435 4.66667 12.6667V5.33334H11.3333V12.6667ZM9.33333 12C9.51014 12 9.67971 11.9298 9.80474 11.8047C9.92976 11.6797 10 11.5102 10 11.3333V7.33334C10 7.15653 9.92976 6.98696 9.80474 6.86194C9.67971 6.73691 9.51014 6.66668 9.33333 6.66668C9.15652 6.66668 8.98695 6.73691 8.86193 6.86194C8.7369 6.98696 8.66667 7.15653 8.66667 7.33334V11.3333C8.66667 11.5102 8.7369 11.6797 8.86193 11.8047C8.98695 11.9298 9.15652 12 9.33333 12Z" fill="#A1A9B6"/>
  </svg>