<svg width="16" height="16" viewBox="0 0 16 16" fill="none" xmlns="http://www.w3.org/2000/svg">
  <path d="M7.52666 10.1933C7.49799 10.2249 7.47128 10.2583 7.44666 10.2933C7.42143 10.3304 7.40126 10.3708 7.38666 10.4133C7.36744 10.451 7.35396 10.4915 7.34667 10.5333C7.34339 10.5776 7.34339 10.6222 7.34667 10.6666C7.34441 10.754 7.36268 10.8408 7.4 10.9199C7.42994 11.0026 7.47771 11.0778 7.53992 11.14C7.60213 11.2022 7.67727 11.25 7.76 11.2799C7.8398 11.3152 7.92608 11.3334 8.01333 11.3334C8.10058 11.3334 8.18686 11.3152 8.26666 11.2799C8.3494 11.25 8.42453 11.2022 8.48674 11.14C8.54895 11.0778 8.59672 11.0026 8.62666 10.9199C8.65627 10.8389 8.66985 10.7528 8.66667 10.6666C8.66717 10.5788 8.65036 10.4919 8.61718 10.4106C8.584 10.3294 8.53512 10.2555 8.47333 10.1933C8.41136 10.1308 8.33762 10.0812 8.25638 10.0473C8.17514 10.0135 8.08801 9.99605 8 9.99605C7.91199 9.99605 7.82485 10.0135 7.74361 10.0473C7.66237 10.0812 7.58864 10.1308 7.52666 10.1933ZM8 1.33325C6.68146 1.33325 5.39252 1.72425 4.2962 2.45679C3.19987 3.18933 2.34539 4.23052 1.8408 5.4487C1.33622 6.66687 1.20419 8.00731 1.46143 9.30052C1.71866 10.5937 2.3536 11.7816 3.28595 12.714C4.2183 13.6463 5.40619 14.2813 6.6994 14.5385C7.9926 14.7957 9.33305 14.6637 10.5512 14.1591C11.7694 13.6545 12.8106 12.8 13.5431 11.7037C14.2757 10.6074 14.6667 9.31846 14.6667 7.99992C14.6667 7.12444 14.4942 6.25753 14.1592 5.4487C13.8242 4.63986 13.3331 3.90493 12.714 3.28587C12.095 2.66682 11.3601 2.17575 10.5512 1.84072C9.74238 1.50569 8.87548 1.33325 8 1.33325ZM8 13.3333C6.94516 13.3333 5.91402 13.0205 5.03696 12.4344C4.15989 11.8484 3.47631 11.0154 3.07264 10.0409C2.66897 9.06636 2.56336 7.994 2.76914 6.95944C2.97493 5.92487 3.48288 4.97456 4.22876 4.22868C4.97464 3.4828 5.92495 2.97485 6.95952 2.76906C7.99408 2.56328 9.06644 2.66889 10.041 3.07256C11.0155 3.47623 11.8485 4.15982 12.4345 5.03688C13.0205 5.91394 13.3333 6.94508 13.3333 7.99992C13.3333 9.41441 12.7714 10.771 11.7712 11.7712C10.771 12.7713 9.41449 13.3333 8 13.3333ZM8 4.66658C7.64871 4.66636 7.30355 4.75867 6.99927 4.93421C6.69499 5.10976 6.44231 5.36236 6.26666 5.66658C6.21843 5.74246 6.18604 5.82732 6.17145 5.91604C6.15685 6.00476 6.16036 6.09551 6.18175 6.18284C6.20314 6.27017 6.24198 6.35228 6.29592 6.42421C6.34986 6.49614 6.4178 6.55642 6.49565 6.60141C6.57349 6.64641 6.65963 6.6752 6.74889 6.68604C6.83814 6.69688 6.92867 6.68955 7.01502 6.6645C7.10138 6.63945 7.18177 6.59719 7.25136 6.54026C7.32096 6.48334 7.37832 6.41292 7.42 6.33325C7.47873 6.23152 7.56331 6.14711 7.66516 6.08857C7.76701 6.03004 7.88252 5.99945 8 5.99992C8.17681 5.99992 8.34638 6.07016 8.4714 6.19518C8.59643 6.3202 8.66667 6.48977 8.66667 6.66658C8.66667 6.8434 8.59643 7.01297 8.4714 7.13799C8.34638 7.26301 8.17681 7.33325 8 7.33325C7.82319 7.33325 7.65362 7.40349 7.52859 7.52851C7.40357 7.65354 7.33333 7.82311 7.33333 7.99992V8.66658C7.33333 8.8434 7.40357 9.01297 7.52859 9.13799C7.65362 9.26301 7.82319 9.33325 8 9.33325C8.17681 9.33325 8.34638 9.26301 8.4714 9.13799C8.59643 9.01297 8.66667 8.8434 8.66667 8.66658V8.54658C9.10758 8.3866 9.47824 8.07674 9.71385 7.67116C9.94946 7.26559 10.035 6.79011 9.9556 6.32785C9.87617 5.86558 9.6368 5.44593 9.27933 5.14226C8.92186 4.83859 8.46903 4.67022 8 4.66658Z" fill="white"/>
  </svg>
  