<svg width="16" height="16" viewBox="0 0 16 16" fill="none" xmlns="http://www.w3.org/2000/svg">
  <path d="M14.6133 7.73342C13.2667 4.60675 10.7333 2.66675 8 2.66675C5.26667 2.66675 2.73333 4.60675 1.38667 7.73342C1.34996 7.81753 1.33101 7.90831 1.33101 8.00008C1.33101 8.09185 1.34996 8.18264 1.38667 8.26675C2.73333 11.3934 5.26667 13.3334 8 13.3334C10.7333 13.3334 13.2667 11.3934 14.6133 8.26675C14.65 8.18264 14.669 8.09185 14.669 8.00008C14.669 7.90831 14.65 7.81753 14.6133 7.73342ZM8 12.0001C5.88666 12.0001 3.88667 10.4734 2.73333 8.00008C3.88667 5.52675 5.88666 4.00008 8 4.00008C10.1133 4.00008 12.1133 5.52675 13.2667 8.00008C12.1133 10.4734 10.1133 12.0001 8 12.0001ZM8 5.33341C7.47258 5.33341 6.95701 5.48981 6.51848 5.78283C6.07995 6.07585 5.73815 6.49232 5.53632 6.97959C5.33449 7.46686 5.28168 8.00304 5.38457 8.52032C5.48746 9.0376 5.74144 9.51276 6.11438 9.8857C6.48732 10.2586 6.96247 10.5126 7.47976 10.6155C7.99704 10.7184 8.53322 10.6656 9.02049 10.4638C9.50776 10.2619 9.92423 9.92013 10.2172 9.4816C10.5103 9.04307 10.6667 8.5275 10.6667 8.00008C10.6667 7.29284 10.3857 6.61456 9.88562 6.11446C9.38552 5.61437 8.70724 5.33341 8 5.33341ZM8 9.33342C7.73629 9.33342 7.4785 9.25522 7.25924 9.10871C7.03997 8.9622 6.86908 8.75396 6.76816 8.51033C6.66724 8.26669 6.64084 7.9986 6.69228 7.73996C6.74373 7.48132 6.87072 7.24374 7.05719 7.05727C7.24366 6.8708 7.48124 6.74381 7.73988 6.69237C7.99852 6.64092 8.26661 6.66733 8.51024 6.76824C8.75388 6.86916 8.96212 7.04006 9.10862 7.25932C9.25513 7.47859 9.33333 7.73637 9.33333 8.00008C9.33333 8.3537 9.19286 8.69284 8.94281 8.94289C8.69276 9.19294 8.35362 9.33342 8 9.33342Z" fill="#A1A9B6"/>
  </svg>
  