<svg width="20" height="20" viewBox="0 0 20 20" fill="none" xmlns="http://www.w3.org/2000/svg">
  <path
    d="M10 1.66663C8.35185 1.66663 6.74068 2.15537 5.37027 3.07105C3.99986 3.98672 2.93176 5.28821 2.30103 6.81093C1.6703 8.33365 1.50527 10.0092 1.82681 11.6257C2.14836 13.2422 2.94203 14.7271 4.10747 15.8925C5.27291 17.058 6.75776 17.8516 8.37427 18.1732C9.99078 18.4947 11.6663 18.3297 13.1891 17.699C14.7118 17.0682 16.0133 16.0001 16.9289 14.6297C17.8446 13.2593 18.3334 11.6481 18.3334 9.99996C18.3309 7.79058 17.4521 5.67239 15.8899 4.11012C14.3276 2.54785 12.2094 1.66908 10 1.66663ZM10 16.6666C8.68148 16.6666 7.39255 16.2756 6.29622 15.5431C5.19989 14.8105 4.34541 13.7694 3.84083 12.5512C3.33624 11.333 3.20422 9.99256 3.46146 8.69936C3.71869 7.40615 4.35363 6.21826 5.28598 5.28591C6.21833 4.35356 7.40622 3.71863 8.69942 3.46139C9.99263 3.20416 11.3331 3.33618 12.5512 3.84076C13.7694 4.34535 14.8106 5.19983 15.5432 6.29616C16.2757 7.39249 16.6667 8.68142 16.6667 9.99996C16.6647 11.7674 15.9616 13.462 14.7118 14.7118C13.462 15.9616 11.7675 16.6646 10 16.6666ZM10 9.58329C9.77901 9.58329 9.56705 9.67109 9.41077 9.82737C9.25449 9.98365 9.16669 10.1956 9.16669 10.4166V12.9166C9.16669 13.1376 9.25449 13.3496 9.41077 13.5059C9.56705 13.6622 9.77901 13.75 10 13.75C10.221 13.75 10.433 13.6622 10.5893 13.5059C10.7456 13.3496 10.8334 13.1376 10.8334 12.9166V10.4166C10.8334 10.1956 10.7456 9.98365 10.5893 9.82737C10.433 9.67109 10.221 9.58329 10 9.58329ZM10 6.24996C9.794 6.24996 9.59261 6.31105 9.42131 6.42551C9.25 6.53997 9.11649 6.70266 9.03765 6.893C8.95881 7.08334 8.93818 7.29278 8.97837 7.49485C9.01857 7.69691 9.11777 7.88252 9.26345 8.0282C9.40913 8.17388 9.59474 8.27308 9.7968 8.31328C9.99887 8.35347 10.2083 8.33284 10.3987 8.254C10.589 8.17516 10.7517 8.04165 10.8661 7.87035C10.9806 7.69904 11.0417 7.49765 11.0417 7.29163C11.0417 7.01536 10.9319 6.75041 10.7366 6.55506C10.5412 6.35971 10.2763 6.24996 10 6.24996Z"
    fill="#A1A9B6" />
</svg>