<svg xmlns="http://www.w3.org/2000/svg" width="24" height="18" viewBox="0 0 24 18">
    <g fill="none" fill-rule="evenodd">
        <path fill="#FAE8D2" d="M21.314 4.582H15.74l-.052.05a1.398 1.398 0 0 0-1.396-1.21h-2.793S5.896 3.175 4.452 6.18v6.633c2.256 2.373 6.13 2.556 6.13 2.556l-.003-.007c.209.12.45.194.71.194h2.794c.777 0 1.414-.617 1.414-1.372 0-.754-.637-1.37-1.414-1.37h.802c.778 0 1.414-.618 1.414-1.373s-.636-1.371-1.414-1.371h.803c.777 0 1.414-.619 1.414-1.372 0-.756-.636-1.372-1.413-1.372h5.626c.779 0 1.415-.618 1.415-1.372 0-.754-.636-1.372-1.415-1.372"/>
        <path fill="#F6696C" d="M15.047 9.63h.64c.53 0 .964-.418.964-.932 0-.515-.433-.933-.964-.933h-2.691c-.532 0-.964.418-.964.933 0 .5.409.91.92.931h2.034l.06.001zm-.804 2.744h.64c.533 0 .965-.418.965-.934 0-.513-.432-.931-.964-.931h-1.888l-.061-.001h-.742c-.531 0-.963.418-.963.932 0 .501.408.91.92.933h2.033l.06.001zm-9.241.263c1.398 1.383 3.41 1.938 4.633 2.156a1.756 1.756 0 0 1-.11-.609c0-.757.482-1.407 1.162-1.677a1.765 1.765 0 0 1-.358-1.067c0-.757.48-1.407 1.16-1.676a1.77 1.77 0 0 1-.357-1.066c0-.999.836-1.812 1.864-1.812h8.319c.53 0 .963-.418.963-.932s-.432-.933-.963-.933h-5.073c-.116.89-.901 1.583-1.85 1.583h-1.606c-.06 0-1.597.04-2.103 1.31-.716 1.798-2.678 2.057-2.761 2.066a.438.438 0 1 1-.114-.87c.062-.008 1.517-.211 2.036-1.514.729-1.83 2.849-1.87 2.938-1.87h1.61a.955.955 0 0 0 .959-.83.346.346 0 0 1-.11-.212.95.95 0 0 0-.95-.823h-2.793a4.3 4.3 0 0 0-.224-.004c-1.165.005-5.103.19-6.272 2.426v6.354zm5.94 2.374a.978.978 0 0 0 .448.106h2.69c.533 0 .965-.418.965-.933 0-.513-.432-.932-.964-.932H11.39c-.531 0-.964.418-.964.932 0 .33.177.62.444.786a.41.41 0 0 1 .073.04zm3.24.984h-2.894c-.281 0-.564-.066-.824-.194-.636-.045-4.162-.394-6.344-2.69a.432.432 0 0 1-.12-.298V6.18c0-.065.015-.128.043-.187 1.365-2.844 5.936-3.03 7.166-3.016.236-.001.375.005.41.007l2.672-.001H14.393c.792 0 1.469.482 1.739 1.16h5.285c1.027 0 1.864.813 1.864 1.81 0 1-.837 1.812-1.864 1.812h-4.031c.169.272.267.591.267.933 0 .757-.481 1.407-1.161 1.677.225.299.358.667.358 1.065 0 .759-.481 1.408-1.161 1.678.225.3.358.668.358 1.066 0 .998-.836 1.811-1.864 1.811z"/>
    </g>
</svg>