<svg width="30" height="30" fill="none" xmlns="http://www.w3.org/2000/svg"><path d="M22.872 19.552a2.426 2.426 0 0 0-.788-.385c0-.017.012-.029.012-.046.05-.152.107-.305.147-.464l.068-.266c.034-.147.068-.29.096-.436.017-.091.029-.187.046-.278.022-.147.045-.289.056-.436.012-.09.017-.187.023-.278.011-.147.017-.3.017-.447v-.266c0-.154-.011-.306-.017-.46 0-.084-.011-.164-.017-.249-.017-.164-.04-.322-.062-.487-.012-.073-.017-.141-.034-.215-.034-.181-.074-.357-.114-.533-.01-.04-.017-.084-.028-.124v.011a7.599 7.599 0 0 0-.878-2.09 4.722 4.722 0 0 0 .108-2.113v-.017a6.41 6.41 0 0 0-.159-.652.164.164 0 0 0-.011-.05v.034l-.017-.074c.17-.108.328-.227.476-.368a2.906 2.906 0 0 0 .01-4.17 3.063 3.063 0 0 0-4.265-.01 2.953 2.953 0 0 0-.413.515 6.483 6.483 0 0 0-1.853-.272 6.61 6.61 0 0 0-1.875.272 2.788 2.788 0 0 0-.413-.522 3.056 3.056 0 0 0-4.26-.01 2.906 2.906 0 0 0-.011 4.168c.153.153.323.278.498.386-.005.022-.017.04-.022.062v-.034s0 .034-.006.05c-.062.21-.12.426-.159.652v.017a4.855 4.855 0 0 0 .108 2.181 7.768 7.768 0 0 0-.856 2.056v-.01c-.01.039-.017.084-.022.124a5.665 5.665 0 0 0-.113.538c-.012.068-.023.142-.034.215-.023.165-.046.323-.063.487l-.017.25a6.25 6.25 0 0 0-.017.464v.266c0 .148.012.3.017.448.006.09.012.187.023.277.017.148.034.29.057.437.017.09.028.187.045.277.028.148.062.295.096.436.023.091.04.176.068.267.028.102.062.21.096.311a2.385 2.385 0 0 0-.946.272c-1.297.703-1.767 2.51-1.15 4.186l.012.029c.05.13.102.26.164.39.215.448.476.788.765 1.049.102.09.204.164.311.226a2.04 2.04 0 0 0 .674.289c.652.153 1.366.006 2.051-.363.42-.226.776-.51 1.048-.844 1.048.476 2.34.68 3.761.686 1.303 0 2.538-.164 3.592-.555.181.204.385.39.617.56.731.539 1.535.788 2.295.607a2.597 2.597 0 0 0 1.2-.714c.148-.153.29-.334.425-.538.08-.12.148-.244.216-.363 0-.011.011-.017.011-.028.062-.12.119-.244.17-.363.612-1.484.328-3.132-.776-3.948l.017-.017Z" fill="#fff"></path><path fill-rule="evenodd" clip-rule="evenodd" d="M23.373 20.087c.66.888.76 2.214.258 3.43a5.224 5.224 0 0 1-.176.377c-.003.004-.005.009-.005.014l-.037.065a3.866 3.866 0 0 1-.603.836 2.6 2.6 0 0 1-1.202.714c-.759.181-1.563-.068-2.294-.606a3.915 3.915 0 0 1-.617-.561c-1.054.39-2.289.555-3.592.555-1.421-.006-2.713-.21-3.761-.686a3.457 3.457 0 0 1-1.048.845c-.685.368-1.4.515-2.05.362a2.05 2.05 0 0 1-.674-.289 1.897 1.897 0 0 1-.312-.226c-.29-.261-.55-.6-.765-1.048-.062-.13-.113-.261-.164-.391l-.012-.029c-.59-1.603-.186-3.325.984-4.087a2.385 2.385 0 0 1 1.112-.37 6.542 6.542 0 0 1-.144-.498l-.02-.08a9.873 9.873 0 0 1-.096-.437 4.093 4.093 0 0 1-.023-.139 8.703 8.703 0 0 1-.08-.575c-.01-.085-.016-.176-.02-.262l-.002-.015a12.461 12.461 0 0 0-.007-.146c-.005-.1-.01-.203-.01-.302v-.266a6.247 6.247 0 0 1 .022-.53l.004-.059.008-.125c.015-.146.035-.288.055-.434l.007-.053.034-.215a5.668 5.668 0 0 1 .116-.551.526.526 0 0 1 .02-.111v.01l.003-.01c.135-.511.312-1 .536-1.461.097-.2.202-.395.317-.585a4.903 4.903 0 0 1-.108-2.18V9.95a5.759 5.759 0 0 1 .162-.668.287.287 0 0 0 .002-.025v-.01.035c.003-.011.008-.021.012-.031l.001-.003a.186.186 0 0 0 .01-.028 2.67 2.67 0 0 1-.498-.386 2.905 2.905 0 0 1 .011-4.17 3.056 3.056 0 0 1 4.26.012c.164.159.294.335.413.522a6.611 6.611 0 0 1 1.875-.272c.64 0 1.264.096 1.853.272a2.95 2.95 0 0 1 .413-.516 3.063 3.063 0 0 1 4.266.011 2.903 2.903 0 0 1-.487 4.538l.009.04v.002l.008.032V9.27c.003.01.007.02.009.031v.003a.098.098 0 0 1 .002.017c.062.215.119.43.159.651v.017c.05.287.074.572.072.852a4.803 4.803 0 0 1-.18 1.26c.123.2.236.407.34.62.224.46.403.951.535 1.46l.003.011v-.011l.003.01a.98.98 0 0 1 .011.052l.014.063c.04.175.08.35.114.532.011.05.017.098.024.146l.01.07.007.053c.02.145.04.287.055.433l.007.086.008.102.002.062.007.153c.005.102.01.204.01.306v.266c0 .147-.006.3-.017.447l-.001.015a4.342 4.342 0 0 1-.022.263c-.01.137-.03.27-.052.407l-.004.029c-.009.045-.016.092-.023.139a3.865 3.865 0 0 1-.023.139c-.022.117-.048.23-.075.346l-.005.02-.016.07-.034.133a13.41 13.41 0 0 0-.034.133c-.017.07-.038.138-.06.206l-.009.026-.042.127-.025.073a4.11 4.11 0 0 0-.017.055c-.003.007-.006.014-.006.023a2.45 2.45 0 0 1 .785.383l.003.002-.017.017.003.002a2.451 2.451 0 0 1 .36.327c.055.06.106.124.155.189Zm.676-1.553c1.6 1.401 1.774 3.748 1.02 5.576l-.008.02c-.05.119-.112.256-.184.398l-.005.012a1.551 1.551 0 0 1-.071.14l-.025.044c-.055.097-.147.26-.247.41-.175.262-.373.52-.599.754l-.009.01a4.154 4.154 0 0 1-1.952 1.139c-1.346.32-2.613-.158-3.576-.866a5.638 5.638 0 0 1-.09-.067c-1.024.26-2.114.363-3.198.363H15.1c-1.17-.005-2.33-.131-3.397-.451a5.478 5.478 0 0 1-.666.423l-.003.001c-.904.485-1.995.765-3.107.515a3.594 3.594 0 0 1-1.154-.477 3.451 3.451 0 0 1-.546-.398l-.009-.008a4.878 4.878 0 0 1-1.124-1.529l-.002-.003a7.01 7.01 0 0 1-.204-.48l-.003-.01-.01-.023a1.482 1.482 0 0 1-.015-.04c-.77-2.09-.349-4.775 1.72-6.007a5.788 5.788 0 0 1-.1-.877l-.002-.02a1.526 1.526 0 0 1-.005-.109 9.644 9.644 0 0 1-.015-.436v-.266c0-.195.007-.384.02-.575l.017-.242.005-.057c.018-.175.042-.344.062-.487l.007-.052.003-.024.001-.005.035-.222A7.08 7.08 0 0 1 6.731 14a2.12 2.12 0 0 1 .073-.301c.169-.618.395-1.217.684-1.787a6.384 6.384 0 0 1-.01-2.119 4.46 4.46 0 0 1 .162-6.242 4.613 4.613 0 0 1 6.34-.078 8.144 8.144 0 0 1 2.575 0c1.795-1.644 4.6-1.608 6.344.112a4.46 4.46 0 0 1 .154 6.216v.004a6.23 6.23 0 0 1-.006 2.053c.3.583.536 1.2.707 1.835a1.5 1.5 0 0 1 .05.185 2.147 2.147 0 0 1 .02.086l.002.01c.036.163.08.353.117.553.018.085.03.157.036.204l.007.05a2.128 2.128 0 0 0 .005.037l.003.024.007.052a13.991 13.991 0 0 1 .069.57c0 .012.003.03.006.068a3.122 3.122 0 0 1 .015.278c.005.111.014.296.014.44v.266a7.453 7.453 0 0 1-.021.564 6 6 0 0 1-.026.316c-.016.186-.043.361-.062.483a5.953 5.953 0 0 1-.027.17l-.002.007c-.006.043-.017.113-.03.185l-.002.008-.028.14c.05.046.098.094.142.145Z" fill="#fff"></path><path d="M21.92 19.58c-.011 4.028-3.144 5.314-6.803 5.308-3.66-.011-6.464-1.308-6.452-5.336.01-4.027 2.99-7.285 6.65-7.279 3.66.011 6.616 3.28 6.605 7.313v-.005Z" fill="#FF847E"></path><path d="M21.92 19.58c-.011 4.028-3.144 5.314-6.803 5.308-3.66-.011-6.464-1.308-6.452-5.336.01-4.027 2.99-7.285 6.65-7.279 3.66.011 6.616 3.28 6.605 7.313v-.005Z" fill="#FD8E7B" style="mix-blend-mode: multiply;"></path><path d="M11.599 21.088c.867 1.778.119 3.2-1.286 3.96-1.405.764-2.934.583-3.801-1.196s-.43-3.84.974-4.605c1.405-.765 3.246.062 4.113 1.84Z" fill="#FF847E"></path><path d="M9.877 24.163c-1.195.652-2.708.148-3.665-1.116.074.272.17.544.3.805.867 1.779 2.396 1.96 3.801 1.195 1.405-.765 2.159-2.18 1.286-3.96a4.601 4.601 0 0 0-.447-.725c.413 1.558-.074 3.15-1.275 3.801Z" fill="#FF9899" style="mix-blend-mode: multiply;"></path><path opacity="0.7" d="M7.673 19.637c-.697.374-1.076 1.054-.855 1.518.226.465.663-.062 1.36-.436.696-.373 1.387-.464 1.16-.923-.226-.459-.968-.532-1.665-.153v-.006Z" fill="#F5F5F5"></path><path d="M23.245 24.254c-1.087 1.637-2.628 1.603-3.92.64-1.291-.963-1.858-2.47-.77-4.112 1.088-1.643 3.02-2.193 4.31-1.235 1.292.957 1.462 3.064.375 4.701l.005.006Z" fill="#FF847E"></path><path d="M19.87 24.078c-1.105-.815-1.383-2.464-.777-3.942a4.392 4.392 0 0 0-.538.651c-1.088 1.637-.527 3.155.77 4.113 1.298.957 2.833.997 3.92-.64a3.88 3.88 0 0 0 .397-.76c-1.11 1.117-2.674 1.394-3.778.584l.005-.006Z" fill="#FF9899" style="mix-blend-mode: multiply;"></path><path opacity="0.7" d="M22.634 19.915c-.64-.476-1.388-.516-1.671-.091-.284.425.362.59.997 1.065.64.476 1.03 1.076 1.314.651.283-.424-.006-1.155-.646-1.625h.006Z" fill="#fff"></path><path d="m8.953 20.249-.113-.232c-1.609-3.286-.793-7.591 1.818-9.62l3.025 6.187c.805 1.643.397 3.795-.912 4.81-1.308 1.013-3.02.498-3.824-1.145h.006Z" fill="#FF847E"></path><path d="M12.987 20.271c-1.309 1.014-3.02.499-3.824-1.144l-.113-.232c-.72-1.467-.952-3.138-.76-4.719-.486 1.887-.345 4.017.55 5.835l.114.232c.804 1.643 2.515 2.159 3.823 1.145.793-.618 1.252-1.655 1.315-2.737-.216.646-.59 1.224-1.1 1.62h-.005Z" fill="#FF9899" style="mix-blend-mode: multiply;"></path><path opacity="0.57" d="M11.565 17.932c-.952.063-1.7.595-1.677 1.19.023.595.81 1.03 1.762.974.952-.062 1.7-.595 1.677-1.19-.023-.594-.81-1.03-1.762-.974Z" fill="#fff"></path><path d="m21.62 20.249.113-.232c1.61-3.286.793-7.591-1.818-9.62l-3.025 6.187c-.804 1.643-.396 3.795.912 4.81 1.309 1.013 3.02.498 3.824-1.145h-.006Z" fill="#FF847E"></path><path d="M17.587 20.271c1.308 1.014 3.019.499 3.823-1.144l.114-.232c.719-1.467.951-3.138.759-4.719.487 1.887.345 4.017-.55 5.835l-.113.232c-.805 1.643-2.515 2.159-3.824 1.145-.793-.618-1.252-1.655-1.314-2.737.215.646.59 1.224 1.099 1.62h.006Z" fill="#FF9899" style="mix-blend-mode: multiply;"></path><path opacity="0.57" d="M19.009 17.932c.951.063 1.7.595 1.677 1.19-.023.595-.81 1.03-1.762.974-.952-.062-1.7-.595-1.677-1.19.023-.594.81-1.03 1.762-.974Z" fill="#fff"></path><path d="M21.518 9.99v-.017c-.504-2.906-3.132-5.047-6.225-5.053-3.093-.005-5.739 2.113-6.254 5.02v.016c-.55 3.082 1.937 5.897 5.217 5.903h2.01c3.28.017 5.785-2.787 5.258-5.869h-.006Z" fill="#FF847E"></path><path d="M21.518 9.99v-.017a7.073 7.073 0 0 0-.17-.702c.006.045.017.085.023.13v.017c.52 3.014-1.926 5.75-5.133 5.739h-1.965c-3.207-.012-5.637-2.765-5.099-5.773v-.017c.012-.045.023-.085.029-.13-.068.226-.13.459-.17.702v.017c-.55 3.082 1.937 5.897 5.217 5.903h2.011c3.28.017 5.784-2.787 5.257-5.869Z" fill="#FF9899" style="mix-blend-mode: multiply;"></path><path d="M21.2 9.31c.216-.124.42-.271.607-.453a2.905 2.905 0 0 0 .011-4.169 3.063 3.063 0 0 0-4.266-.011c-.186.181-.34.38-.464.589L21.2 9.31ZM9.327 9.276a2.906 2.906 0 0 1-.59-4.622A3.056 3.056 0 0 1 13 4.665c.182.181.334.38.46.59L9.321 9.275h.005Z" fill="#FF847E"></path><g style="mix-blend-mode: multiply;"><path d="M21.15 5.34a2.1 2.1 0 0 0-2.323-.42.388.388 0 0 0-.12.629l2.216 2.18a.398.398 0 0 0 .64-.113c.125-.26.187-.543.187-.844a2 2 0 0 0-.6-1.433ZM11.73 4.903a2.217 2.217 0 0 0-.862-.187c-.555 0-1.076.21-1.467.59-.391.379-.612.889-.612 1.433 0 .294.062.583.181.844.114.249.448.306.64.113l2.227-2.164a.385.385 0 0 0-.114-.629h.006Z" fill="#FF9899" style="mix-blend-mode: multiply;"></path></g><path opacity="0.4" d="M17.841 6.563c0 .668-5.137.657-5.137-.011 0-.669 1.155-1.207 2.571-1.201 1.417 0 2.566.55 2.566 1.218v-.006Z" fill="#fff"></path><path d="M20.425 9.407c.056.69-.397 1.291-1.026 1.337-.623.045-1.178-.476-1.235-1.173-.056-.691.397-1.291 1.026-1.337.623-.045 1.178.476 1.235 1.173Z" fill="#FE7E7B"></path><path opacity="0.57" d="M19.201 8.387c-.311.023-.555.181-.538.357.017.176.277.294.59.272.31-.023.554-.181.537-.357-.017-.176-.277-.295-.589-.272Z" fill="#fff"></path><path d="M19.354 10.245c-.544.04-1.042-.357-1.195-.923-.006.079-.011.164 0 .255.056.69.612 1.217 1.235 1.172.623-.045 1.082-.646 1.025-1.337a1.202 1.202 0 0 0-.045-.249c-.057.584-.476 1.048-1.02 1.088v-.006Z" fill="#FF9899" style="mix-blend-mode: multiply;"></path><path d="M12.534 9.588c-.08.69-.646 1.206-1.27 1.144-.622-.062-1.064-.668-.985-1.36.08-.69.646-1.206 1.27-1.144.622.063 1.064.669.985 1.36Z" fill="#FE7E7B"></path><path opacity="0.57" d="M11.531 8.381c-.311-.028-.578.085-.6.26-.023.176.215.34.527.37.311.027.577-.086.6-.262.017-.175-.215-.34-.527-.368Z" fill="#fff"></path><path d="M11.322 10.234c-.544-.051-.952-.527-.992-1.11a1.77 1.77 0 0 0-.05.249c-.08.69.362 1.303.985 1.36.623.062 1.19-.454 1.269-1.145a.963.963 0 0 0 0-.255c-.17.56-.669.946-1.218.895l.005.006Z" fill="#FF9899" style="mix-blend-mode: multiply;"></path><path d="M17.162 9.497c0 .935-.816 1.689-1.818 1.689-1.003 0-1.813-.765-1.807-1.694 0-.935.815-1.688 1.818-1.688 1.003 0 1.813.764 1.807 1.693Z" fill="#FE7E7B"></path><path opacity="0.57" d="M15.355 8.008c-.498 0-.906.187-.906.419 0 .232.402.425.906.425.499 0 .906-.187.906-.42 0-.232-.402-.424-.906-.424Z" fill="#fff"></path><path d="M15.35 10.505c-.879 0-1.61-.583-1.774-1.359a1.64 1.64 0 0 0-.04.34c0 .935.805 1.694 1.808 1.694 1.002 0 1.818-.754 1.818-1.688 0-.114-.011-.227-.034-.34-.17.77-.906 1.348-1.779 1.348v.005Z" fill="#FF9899" style="mix-blend-mode: multiply;"></path><g style="mix-blend-mode: multiply;"><path d="M15.372 12.5c-.697.011-1.105-.198-1.32-.374-.255-.204-.408-.487-.408-.765a.14.14 0 0 1 .142-.136c.079 0 .141.057.147.13.011.658.867.884 1.439.878.572-.005 1.422-.254 1.416-.912a.14.14 0 0 1 .142-.136c.079 0 .141.057.147.13.005.471-.442 1.168-1.7 1.185h-.005Z" fill="#FF9899" style="mix-blend-mode: multiply;"></path><path d="M17.224 11.52c-.227 0-.453-.097-.572-.261-.046-.062-.023-.147.04-.187a.15.15 0 0 1 .198.04c.085.124.311.175.47.113.073-.028.159 0 .187.068.034.068 0 .147-.074.176a.668.668 0 0 1-.26.05h.01ZM13.378 11.633c-.046 0-.085 0-.13-.011a.132.132 0 0 1-.114-.159c.017-.073.09-.119.17-.107.17.028.374-.068.42-.199.022-.068.101-.107.18-.085.074.023.12.097.091.17-.08.227-.34.385-.617.391Z" fill="#FF9899" style="mix-blend-mode: multiply;"></path></g></svg>